<?xml version="1.0" encoding="utf-8"?>
<!-- Generator: Adobe Illustrator 23.0.6, SVG Export Plug-In . SVG Version: 6.00 Build 0)  -->
<svg version="1.1" id="Camada_1" xmlns="http://www.w3.org/2000/svg" xmlns:xlink="http://www.w3.org/1999/xlink" x="0px" y="0px"
	 viewBox="0 0 26 30" style="enable-background:new 0 0 26 30;" xml:space="preserve">
<style type="text/css">
	.st0{fill:#006BAA;}
</style>
<g>
	<path class="st0" d="M13.99,5.96c0-0.23-0.08-0.43-0.24-0.6l-3.35-3.45c-0.16-0.16-0.35-0.25-0.58-0.25H9.61v4.5h4.38V5.96z"/>
	<path class="st0" d="M13.99,11.56V7.3H9.33c-0.23,0-0.42-0.08-0.58-0.25c-0.16-0.16-0.24-0.36-0.24-0.6V1.67H1.67
		c-0.23,0-0.42,0.08-0.58,0.25c-0.16,0.16-0.24,0.36-0.24,0.6v16.31c0,0.23,0.08,0.43,0.24,0.6c0.16,0.16,0.35,0.25,0.58,0.25H7.6
		C7.76,15.8,10.41,12.58,13.99,11.56z"/>
</g>
<path class="st0" d="M16.4,25.96c1.26,0,2.37-0.4,3.33-1.19c0.96-0.79,1.59-1.8,1.87-3.03c0.02-0.08,0.07-0.15,0.14-0.2
	c0.07-0.05,0.15-0.08,0.23-0.08h1.49c0.12,0,0.22,0.05,0.29,0.14c0.07,0.09,0.1,0.19,0.08,0.3c-0.22,1.19-0.69,2.26-1.4,3.22
	c-0.71,0.96-1.59,1.71-2.63,2.27c-1.04,0.55-2.17,0.83-3.39,0.83c-1.14,0-2.2-0.24-3.19-0.72c-0.99-0.48-1.85-1.15-2.55-2l0.12,2.56
	c0.02,0.12,0,0.22-0.08,0.3c-0.07,0.07-0.17,0.11-0.29,0.11H8.98c-0.1,0-0.19-0.04-0.26-0.11c-0.07-0.07-0.11-0.16-0.11-0.27v-6.25
	c0-0.1,0.04-0.19,0.11-0.27s0.16-0.11,0.26-0.11h6.08c0.1,0,0.19,0.04,0.26,0.11c0.07,0.07,0.11,0.16,0.11,0.27v1.47
	c0,0.1-0.04,0.19-0.11,0.27c-0.07,0.07-0.16,0.11-0.26,0.11l-3.1-0.16c0.49,0.75,1.12,1.34,1.9,1.78S15.49,25.96,16.4,25.96z
	 M22.03,12.86c0-0.12,0.04-0.22,0.11-0.3c0.07-0.07,0.16-0.11,0.26-0.11h1.43c0.1,0,0.19,0.04,0.26,0.11
	c0.07,0.07,0.11,0.16,0.11,0.27v6.25c0,0.1-0.04,0.19-0.11,0.27c-0.07,0.07-0.16,0.11-0.26,0.11h-6.08c-0.1,0-0.19-0.04-0.26-0.11
	c-0.07-0.07-0.11-0.16-0.11-0.27v-1.47c0-0.1,0.04-0.19,0.11-0.27c0.07-0.07,0.17-0.11,0.29-0.11l3.07,0.16
	c-0.49-0.75-1.12-1.34-1.9-1.78c-0.78-0.44-1.63-0.66-2.54-0.66c-1.26,0-2.37,0.4-3.33,1.19c-0.96,0.79-1.59,1.8-1.87,3.03
	c-0.02,0.08-0.07,0.15-0.14,0.2c-0.07,0.05-0.15,0.08-0.23,0.08H9.35c-0.12,0-0.22-0.05-0.29-0.14c-0.07-0.09-0.1-0.19-0.08-0.3
	c0.22-1.19,0.69-2.26,1.4-3.22c0.71-0.96,1.59-1.71,2.63-2.27c1.04-0.55,2.17-0.83,3.39-0.83c1.14,0,2.2,0.24,3.19,0.72
	c0.99,0.48,1.85,1.15,2.55,2L22.03,12.86z"/>
</svg>
